<svg width="90" height="19" viewBox="0 0 90 19" fill="none" xmlns="http://www.w3.org/2000/svg">
<path d="M25.0114 15V3.36364H32.7159V5.39205H27.4716V8.16477H32.2045V10.1932H27.4716V15H25.0114ZM34.3253 15V6.27273H36.7457V15H34.3253ZM35.5412 5.14773C35.1813 5.14773 34.8726 5.02841 34.6151 4.78977C34.3613 4.54735 34.2344 4.25758 34.2344 3.92045C34.2344 3.58712 34.3613 3.30114 34.6151 3.0625C34.8726 2.82008 35.1813 2.69886 35.5412 2.69886C35.901 2.69886 36.2079 2.82008 36.4616 3.0625C36.7192 3.30114 36.848 3.58712 36.848 3.92045C36.848 4.25758 36.7192 4.54735 36.4616 4.78977C36.2079 5.02841 35.901 5.14773 35.5412 5.14773ZM41.1051 9.95455V15H38.6847V6.27273H40.9915V7.8125H41.0938C41.2869 7.30492 41.6108 6.90341 42.0653 6.60795C42.5199 6.30871 43.071 6.15909 43.7188 6.15909C44.3248 6.15909 44.8532 6.29167 45.304 6.55682C45.7547 6.82197 46.1051 7.20076 46.3551 7.69318C46.6051 8.18182 46.7301 8.76515 46.7301 9.44318V15H44.3097V9.875C44.3134 9.34091 44.1771 8.92424 43.9006 8.625C43.6241 8.32197 43.2434 8.17045 42.7585 8.17045C42.4328 8.17045 42.1449 8.24053 41.8949 8.38068C41.6487 8.52083 41.4555 8.72538 41.3153 8.99432C41.179 9.25947 41.1089 9.57955 41.1051 9.95455ZM54.9957 6.71023C54.9503 6.25189 54.7552 5.89583 54.4105 5.64205C54.0658 5.38826 53.598 5.26136 53.0071 5.26136C52.6056 5.26136 52.2666 5.31818 51.9901 5.43182C51.7135 5.54167 51.5014 5.69508 51.3537 5.89205C51.2098 6.08902 51.1378 6.3125 51.1378 6.5625C51.1302 6.77083 51.1738 6.95265 51.2685 7.10795C51.367 7.26326 51.5014 7.39773 51.6719 7.51136C51.8423 7.62121 52.0393 7.7178 52.2628 7.80114C52.4863 7.88068 52.7249 7.94886 52.9787 8.00568L54.0241 8.25568C54.5317 8.36932 54.9976 8.52083 55.4219 8.71023C55.8461 8.89962 56.2135 9.13258 56.5241 9.40909C56.8348 9.68561 57.0753 10.0114 57.2457 10.3864C57.42 10.7614 57.509 11.1913 57.5128 11.6761C57.509 12.3883 57.3272 13.0057 56.9673 13.5284C56.6113 14.0473 56.0961 14.4508 55.4219 14.7386C54.7514 15.0227 53.9427 15.1648 52.9957 15.1648C52.0563 15.1648 51.2382 15.0208 50.5412 14.733C49.848 14.4451 49.3063 14.0189 48.9162 13.4545C48.5298 12.8864 48.3272 12.1837 48.3082 11.3466H50.6889C50.7154 11.7367 50.8272 12.0625 51.0241 12.3239C51.2249 12.5814 51.492 12.7765 51.8253 12.9091C52.1624 13.0379 52.5431 13.1023 52.9673 13.1023C53.384 13.1023 53.7457 13.0417 54.0526 12.9205C54.3632 12.7992 54.6037 12.6307 54.7741 12.4148C54.9446 12.1989 55.0298 11.9508 55.0298 11.6705C55.0298 11.4091 54.9522 11.1894 54.7969 11.0114C54.6454 10.8333 54.4219 10.6818 54.1264 10.5568C53.8348 10.4318 53.4768 10.3182 53.0526 10.2159L51.7855 9.89773C50.8045 9.65909 50.0298 9.28598 49.4616 8.77841C48.8935 8.27083 48.6113 7.58712 48.6151 6.72727C48.6113 6.02273 48.7988 5.4072 49.1776 4.88068C49.5601 4.35417 50.0848 3.94318 50.7514 3.64773C51.4181 3.35227 52.1757 3.20455 53.0241 3.20455C53.8878 3.20455 54.6416 3.35227 55.2855 3.64773C55.9332 3.94318 56.437 4.35417 56.7969 4.88068C57.1567 5.4072 57.3423 6.01705 57.3537 6.71023H54.9957ZM63.7642 6.27273V8.09091H58.5085V6.27273H63.7642ZM59.7017 4.18182H62.1222V12.3182C62.1222 12.5417 62.1563 12.7159 62.2244 12.8409C62.2926 12.9621 62.3873 13.0473 62.5085 13.0966C62.6335 13.1458 62.7775 13.1705 62.9403 13.1705C63.054 13.1705 63.1676 13.161 63.2812 13.142C63.3949 13.1193 63.482 13.1023 63.5426 13.0909L63.9233 14.892C63.8021 14.9299 63.6316 14.9735 63.4119 15.0227C63.1922 15.0758 62.9252 15.108 62.6108 15.1193C62.0275 15.142 61.5161 15.0644 61.0767 14.8864C60.6411 14.7083 60.3021 14.4318 60.0597 14.0568C59.8172 13.6818 59.6979 13.2083 59.7017 12.6364V4.18182ZM67.8295 15.1648C67.2727 15.1648 66.7765 15.0682 66.3409 14.875C65.9053 14.678 65.5606 14.3883 65.3068 14.0057C65.0568 13.6193 64.9318 13.1383 64.9318 12.5625C64.9318 12.0777 65.0208 11.6705 65.1989 11.3409C65.3769 11.0114 65.6193 10.7462 65.9261 10.5455C66.233 10.3447 66.5814 10.1932 66.9716 10.0909C67.3655 9.98864 67.7784 9.91667 68.2102 9.875C68.7178 9.82197 69.1269 9.77273 69.4375 9.72727C69.7481 9.67803 69.9735 9.60606 70.1136 9.51136C70.2538 9.41667 70.3239 9.27652 70.3239 9.09091V9.05682C70.3239 8.69697 70.2102 8.41856 69.983 8.22159C69.7595 8.02462 69.4413 7.92614 69.0284 7.92614C68.5928 7.92614 68.2462 8.02273 67.9886 8.21591C67.7311 8.4053 67.5606 8.64394 67.4773 8.93182L65.2386 8.75C65.3523 8.2197 65.5758 7.76136 65.9091 7.375C66.2424 6.98485 66.6723 6.68561 67.1989 6.47727C67.7292 6.26515 68.3428 6.15909 69.0398 6.15909C69.5246 6.15909 69.9886 6.21591 70.4318 6.32955C70.8788 6.44318 71.2746 6.61932 71.6193 6.85795C71.9678 7.09659 72.2424 7.40341 72.4432 7.77841C72.6439 8.14962 72.7443 8.5947 72.7443 9.11364V15H70.4489V13.7898H70.3807C70.2405 14.0625 70.053 14.303 69.8182 14.5114C69.5833 14.7159 69.3011 14.8769 68.9716 14.9943C68.642 15.108 68.2614 15.1648 67.8295 15.1648ZM68.5227 13.4943C68.8788 13.4943 69.1932 13.4242 69.4659 13.2841C69.7386 13.1402 69.9527 12.947 70.108 12.7045C70.2633 12.4621 70.3409 12.1875 70.3409 11.8807V10.9545C70.2652 11.0038 70.161 11.0492 70.0284 11.0909C69.8996 11.1288 69.7538 11.1648 69.5909 11.1989C69.428 11.2292 69.2652 11.2576 69.1023 11.2841C68.9394 11.3068 68.7917 11.3277 68.6591 11.3466C68.375 11.3883 68.1269 11.4545 67.9148 11.5455C67.7027 11.6364 67.5379 11.7595 67.4205 11.9148C67.303 12.0663 67.2443 12.2557 67.2443 12.483C67.2443 12.8125 67.3636 13.0644 67.6023 13.2386C67.8447 13.4091 68.1515 13.4943 68.5227 13.4943ZM79.2642 6.27273V8.09091H74.0085V6.27273H79.2642ZM75.2017 4.18182H77.6222V12.3182C77.6222 12.5417 77.6563 12.7159 77.7244 12.8409C77.7926 12.9621 77.8873 13.0473 78.0085 13.0966C78.1335 13.1458 78.2775 13.1705 78.4403 13.1705C78.554 13.1705 78.6676 13.161 78.7812 13.142C78.8949 13.1193 78.982 13.1023 79.0426 13.0909L79.4233 14.892C79.3021 14.9299 79.1316 14.9735 78.9119 15.0227C78.6922 15.0758 78.4252 15.108 78.1108 15.1193C77.5275 15.142 77.0161 15.0644 76.5767 14.8864C76.1411 14.7083 75.8021 14.4318 75.5597 14.0568C75.3172 13.6818 75.1979 13.2083 75.2017 12.6364V4.18182ZM84.7244 15.1705C83.8267 15.1705 83.054 14.9886 82.4062 14.625C81.7623 14.2576 81.2661 13.7386 80.9176 13.0682C80.5691 12.3939 80.3949 11.5966 80.3949 10.6761C80.3949 9.77841 80.5691 8.99053 80.9176 8.3125C81.2661 7.63447 81.7566 7.10606 82.3892 6.72727C83.0256 6.34848 83.7718 6.15909 84.6278 6.15909C85.2036 6.15909 85.7396 6.25189 86.2358 6.4375C86.7358 6.61932 87.1714 6.89394 87.5426 7.26136C87.9176 7.62879 88.2093 8.09091 88.4176 8.64773C88.6259 9.20076 88.7301 9.84848 88.7301 10.5909V11.2557H81.3608V9.75568H86.4517C86.4517 9.4072 86.3759 9.09848 86.2244 8.82955C86.0729 8.56061 85.8627 8.35038 85.5938 8.19886C85.3286 8.04356 85.0199 7.96591 84.6676 7.96591C84.3002 7.96591 83.9744 8.05114 83.6903 8.22159C83.41 8.38826 83.1903 8.61364 83.0312 8.89773C82.8722 9.17803 82.7907 9.49053 82.7869 9.83523V11.2614C82.7869 11.6932 82.8665 12.0663 83.0256 12.3807C83.1884 12.6951 83.4176 12.9375 83.7131 13.108C84.0085 13.2784 84.3589 13.3636 84.7642 13.3636C85.0331 13.3636 85.2794 13.3258 85.5028 13.25C85.7263 13.1742 85.9176 13.0606 86.0767 12.9091C86.2358 12.7576 86.357 12.572 86.4403 12.3523L88.679 12.5C88.5653 13.0379 88.3324 13.5076 87.9801 13.9091C87.6316 14.3068 87.1809 14.6174 86.6278 14.8409C86.0786 15.0606 85.4441 15.1705 84.7244 15.1705Z" fill="white"/>
<rect y="1" width="16.7143" height="16" rx="3" fill="white"/>
<path d="M6.42773 6.46191C6.42773 4.80506 7.77088 3.46191 9.42773 3.46191H16.7134V14.5388H9.42774C7.77088 14.5388 6.42773 13.1957 6.42773 11.5388V6.46191Z" fill="#4F46E5"/>
<rect x="8.35742" y="5.30762" width="9.64286" height="7.38462" fill="white"/>
<ellipse cx="11.5709" cy="9.0003" rx="1.28571" ry="1.23077" fill="#4F46E5"/>
</svg>
